<svg width="31" height="31" viewBox="0 0 31 31" fill="none" xmlns="http://www.w3.org/2000/svg">
<path d="M25.466 18.0866C20.8707 18.2658 16.5201 19.4607 12.6437 21.4411L7.6592 24.3193C6.34097 25.0794 4.65748 24.6232 3.90096 23.3118L1.36776 18.9254C0.609615 17.6116 1.0615 15.9253 2.37529 15.1672L6.50497 12.7825C6.74411 12.6445 7.04993 12.7263 7.18806 12.9655L10.433 18.586C10.5735 18.8293 10.8877 18.9101 11.1288 18.7615C11.362 18.6177 11.4257 18.3053 11.2887 18.0681L8.02027 12.407C7.89045 12.1821 7.9542 11.895 8.16765 11.7471C11.5769 9.38337 14.4613 6.37284 16.6763 2.8618C17.5155 1.53058 19.4709 1.5662 20.2596 2.9318L27.1966 14.9484C27.985 16.3111 27.0411 18.0254 25.466 18.0866ZM26.3561 9.7175C26.6129 8.24758 25.7514 6.77329 24.3589 6.26865C23.9212 6.11002 23.5242 6.58635 23.7569 6.98955C24.3109 7.94939 24.8669 8.91254 25.4291 9.88594C25.664 10.2925 26.2753 10.1801 26.3561 9.7175ZM14.8138 27.41L12.441 23.291C12.3031 23.0516 11.9969 22.9695 11.7576 23.1076C10.4716 23.8495 10.423 23.8784 8.7076 24.8685C8.46841 25.0066 8.38615 25.3126 8.52428 25.5518L10.9012 29.6682C11.2059 30.1953 11.7538 30.482 12.3118 30.482C12.8531 30.482 13.0601 30.2989 14.2188 29.6301C14.995 29.1819 15.2619 28.1857 14.8138 27.41ZM30.007 5.91564C30.2461 5.77758 30.3281 5.47175 30.19 5.23262C30.052 4.99355 29.7463 4.91149 29.507 5.04962L28.2132 5.79658C27.7705 6.05221 27.9557 6.72973 28.4637 6.72973C28.6416 6.72967 28.6059 6.72454 30.007 5.91564ZM25.4092 3.32463L25.7247 2.14734C25.7962 1.88059 25.6379 1.60645 25.3712 1.53495C25.1043 1.46357 24.8303 1.62177 24.7588 1.88852L24.4432 3.06581C24.3583 3.38282 24.5972 3.69539 24.9265 3.69539C25.1473 3.69533 25.3493 3.54801 25.4092 3.32463ZM30.9829 11.2547C31.0544 10.9879 30.896 10.7137 30.6293 10.6423L29.452 10.3268C29.1853 10.2555 28.9111 10.4137 28.8396 10.6804C28.7681 10.9471 28.9264 11.2213 29.1931 11.2928C30.4807 11.6378 30.41 11.6254 30.5002 11.6254C30.7209 11.6254 30.923 11.4781 30.9829 11.2547Z" fill="#E8BA03"/>
<path d="M24.466 17.0866C19.8707 17.2658 15.5201 18.4607 11.6437 20.4411L6.6592 23.3193C5.34097 24.0794 3.65748 23.6232 2.90096 22.3118L0.367763 17.9254C-0.390385 16.6116 0.0615035 14.9253 1.37529 14.1672L5.50497 11.7825C5.74411 11.6445 6.04993 11.7263 6.18806 11.9655L9.43303 17.586C9.57353 17.8293 9.88766 17.9101 10.1288 17.7615C10.362 17.6177 10.4257 17.3053 10.2887 17.0681L7.02027 11.407C6.89045 11.1821 6.9542 10.895 7.16765 10.7471C10.5769 8.38337 13.4613 5.37284 15.6763 1.8618C16.5155 0.530577 18.4709 0.566202 19.2596 1.9318L26.1966 13.9484C26.985 15.3111 26.0411 17.0254 24.466 17.0866ZM25.3561 8.7175C25.6129 7.24758 24.7514 5.77329 23.3589 5.26865C22.9212 5.11002 22.5242 5.58635 22.7569 5.98955C23.3109 6.94939 23.8669 7.91254 24.4291 8.88594C24.664 9.29252 25.2753 9.18008 25.3561 8.7175ZM13.8138 26.41L11.441 22.291C11.3031 22.0516 10.9969 21.9695 10.7576 22.1076C9.47159 22.8495 9.42296 22.8784 7.7076 23.8685C7.46841 24.0066 7.38615 24.3126 7.52428 24.5518L9.90117 28.6682C10.2059 29.1953 10.7538 29.482 11.3118 29.482C11.8531 29.482 12.0601 29.2989 13.2188 28.6301C13.995 28.1819 14.2619 27.1857 13.8138 26.41ZM29.007 4.91564C29.2461 4.77758 29.3281 4.47175 29.19 4.23262C29.052 3.99355 28.7463 3.91149 28.507 4.04962L27.2132 4.79658C26.7705 5.05221 26.9557 5.72973 27.4637 5.72973C27.6416 5.72967 27.6059 5.72454 29.007 4.91564ZM24.4092 2.32463L24.7247 1.14734C24.7962 0.880587 24.6379 0.606454 24.3712 0.534952C24.1043 0.463575 23.8303 0.621767 23.7588 0.888524L23.4432 2.06581C23.3583 2.38282 23.5972 2.69539 23.9265 2.69539C24.1473 2.69533 24.3493 2.54801 24.4092 2.32463ZM29.9829 10.2547C30.0544 9.98791 29.896 9.71372 29.6293 9.64228L28.452 9.32683C28.1853 9.25552 27.9111 9.41371 27.8396 9.6804C27.7681 9.9471 27.9264 10.2213 28.1931 10.2928C29.4807 10.6378 29.41 10.6254 29.5002 10.6254C29.7209 10.6254 29.923 10.4781 29.9829 10.2547Z" fill="white"/>
</svg>
